<?xml version="1.0" encoding="UTF-8"?>
<svg xmlns="http://www.w3.org/2000/svg" xmlns:xlink="http://www.w3.org/1999/xlink" width="100px" height="100px" viewBox="0 0 100 100" version="1.1">
<g id="surface1">
<rect x="0" y="0" width="100" height="100" style="fill:rgb(96.862745%,87.45098%,11.764706%);fill-opacity:1;stroke:none;"/>
<path style=" stroke:none;fill-rule:nonzero;fill:rgb(0%,0%,0%);fill-opacity:1;" d="M 67.175781 78.125 C 69.1875 81.414062 71.808594 83.832031 76.445312 83.832031 C 80.339844 83.832031 82.824219 81.886719 82.824219 79.195312 C 82.824219 75.972656 80.269531 74.832031 75.984375 72.957031 L 73.636719 71.949219 C 66.855469 69.0625 62.347656 65.441406 62.347656 57.792969 C 62.347656 50.746094 67.71875 45.378906 76.109375 45.378906 C 82.085938 45.378906 86.382812 47.457031 89.476562 52.902344 L 82.160156 57.601562 C 80.546875 54.710938 78.808594 53.574219 76.109375 53.574219 C 73.359375 53.574219 71.613281 55.320312 71.613281 57.601562 C 71.613281 60.421875 73.359375 61.5625 77.390625 63.308594 L 79.742188 64.3125 C 87.726562 67.738281 92.234375 71.230469 92.234375 79.078125 C 92.234375 87.535156 85.585938 92.171875 76.660156 92.171875 C 67.933594 92.171875 62.296875 88.011719 59.539062 82.5625 Z M 33.980469 78.941406 C 35.457031 81.558594 36.796875 83.773438 40.027344 83.773438 C 43.113281 83.773438 45.0625 82.566406 45.0625 77.867188 L 45.0625 45.914062 L 54.457031 45.914062 L 54.457031 77.996094 C 54.457031 87.726562 48.753906 92.152344 40.425781 92.152344 C 32.902344 92.152344 28.546875 88.261719 26.332031 83.570312 Z M 33.980469 78.941406 "/>
</g>
</svg>
